<svg xmlns="http://www.w3.org/2000/svg" xmlns:xlink="http://www.w3.org/1999/xlink" version="1.1" viewBox="0 0 100 100" enable-background="new 0 0 100 100" xml:space="preserve">
  <defs>
  <linearGradient id="linear" x1="0%" y1="0%" x2="100%" y2="0%">
    <stop offset="0%"   stop-color="#72bcd4"/>
    <stop offset="100%" stop-color="#a3b1bc"/>
  </linearGradient>
</defs>
    <polygon fill="url(#linear)" points="81.08,58.323 78.546,53.93 70.217,58.74 55.082,50 70.217,41.26 78.537,46.064 81.069,41.672 75.292,38.337    84.11,33.238 81.578,28.851 72.739,33.95 72.739,27.247 67.674,27.247 67.674,36.875 52.514,45.629 52.514,28.125 60.863,23.306    58.331,18.916 52.514,22.271 52.514,12.077 47.442,12.077 47.442,22.258 41.66,18.918 39.126,23.31 47.442,28.115 47.442,45.591    32.308,36.85 32.308,27.247 27.236,27.247 27.236,33.927 18.422,28.836 15.89,33.226 24.714,38.322 18.916,41.67 21.448,46.06    29.783,41.25 44.938,50 29.783,58.755 21.444,53.936 18.905,58.33 24.714,61.681 15.894,66.774 18.433,71.161 27.236,66.075    27.236,72.754 32.308,72.754 32.308,63.15 47.442,54.409 47.442,71.89 39.132,76.685 41.669,81.077 47.442,77.742 47.442,87.923    52.514,87.923 52.514,77.731 58.32,81.084 60.854,76.69 52.514,71.877 52.514,54.375 67.674,63.125 67.674,72.754 72.739,72.754    72.739,66.053 81.567,71.149 84.106,66.759 75.292,61.668  "/>
</svg>
